<svg data-name="Layer 1" viewBox="0 0 64 64" xmlns="http://www.w3.org/2000/svg"><path d="M60 39h-3a18.86 18.86 0 0 0-4.417-13.774c-1.907-5.768-12.081-12.571-18.535-12.946l-3.112-3.112a4.087 4.087 0 1 0-7.59-1.8 4.105 4.105 0 0 0-3.17 1.198c-3.373 3.538 1.052 8.725 4.992 6.37l3.15 3.151q.026.442.092.93a17.744 17.744 0 0 0-7.334 1.838 13.817 13.817 0 0 0-3-.549l-3.14-3.138a4.087 4.087 0 1 0-7.59-1.8 4.104 4.104 0 0 0-3.17 1.198c-3.373 3.538 1.052 8.725 4.992 6.37l3.138 3.139a13.817 13.817 0 0 0 .55 3.004 17.027 17.027 0 0 0-1.362 11.868A5.833 5.833 0 0 0 7.148 39H4a1 1 0 0 0-1 1v3.147A5.822 5.822 0 0 0 4.458 47c-.711-.08-1.442.179-1.458 1a9.01 9.01 0 0 0 8 8.941V58a3.003 3.003 0 0 0 3 3h36a3.003 3.003 0 0 0 3-3v-1.059A9.01 9.01 0 0 0 61 48c-.017-.82-.746-1.08-1.458-1A5.822 5.822 0 0 0 61 43.148V40a1 1 0 0 0-1-1Zm-5 .305a5.956 5.956 0 0 0-3 2.278 5.913 5.913 0 0 0-4.17-2.54c-.45-.08-3.322-.03-3.83-.043a1 1 0 0 0-1 1v3.147A5.94 5.94 0 0 0 44.45 47H19.548A6.68 6.68 0 0 0 21 41.98c2.767 2.405 5.153 3.454 8.107 2.84.083-.016.167-.032.25-.051l.061-.018a8.9 8.9 0 0 0 4.458-2.808l.017-.017a.514.514 0 0 0 .036-.036 9.123 9.123 0 0 0 2.79-4.373c.018-.063.04-.126.056-.189.015-.06.026-.122.038-.183 1.344-7.062-7.296-12.614-12.983-15.283C27.28 20.45 35.078 21.158 39 21c9.884.085 16.872 8.492 16 18.305ZM48.852 47A3.857 3.857 0 0 1 45 43.148V41h2.147A3.857 3.857 0 0 1 51 44.852V47Zm-35.498-6.836a15.145 15.145 0 0 1 .489-8.378A34.183 34.183 0 0 0 18.186 39a7.094 7.094 0 0 0-4.832 1.164Zm1.702-17.108a2.547 2.547 0 0 1 1.004-.597 4.723 4.723 0 0 1 1.303-.184c.055 0 .105-.007.162-.005a11.68 11.68 0 0 1 3.313.593c5.17 1.843 14.807 7.217 14.037 13.774-.415 2.397-3.878 5.853-6.275 6.247-2.042.34-3.878-.53-5.593-1.831-3.577-2.855-6.752-8.02-8.137-12.202-.67-2.15-.769-3.914-.3-5.043a2.46 2.46 0 0 1 .486-.752ZM13 44.852a3.866 3.866 0 0 1 3.163-3.782A25.052 25.052 0 0 1 19 41v2.147a3.914 3.914 0 0 1-1.241 2.815C16.549 47.212 14.577 47.003 13 47Zm33.222-24.328c-4.137-2.13-11.285-1.421-15.8-1.524-.31-1.908-.032-3.005.41-3.651a2.352 2.352 0 0 1 .153-.2c.037-.044.074-.087.113-.126a2.357 2.357 0 0 1 .438-.335 2.828 2.828 0 0 1 .517-.226 5.12 5.12 0 0 1 .845-.174c.29-.045.623.009.925-.044 3.807.107 9.584 3.185 13.355 6.736q-.471-.242-.956-.456ZM25.256 12.61a.999.999 0 0 0-.69.275 2.08 2.08 0 1 1-.017-2.923 1 1 0 0 0 1.432-1.396 2.08 2.08 0 1 1 2.922-.018 1 1 0 0 0 0 1.414l2.575 2.576a4.628 4.628 0 0 0-2.94 2.94l-2.575-2.576a.997.997 0 0 0-.707-.292Zm-16 8a.999.999 0 0 0-.69.275 2.08 2.08 0 1 1-.018-2.923 1 1 0 0 0 1.432-1.396 2.08 2.08 0 1 1 2.923-.018 1 1 0 0 0 0 1.415l2.575 2.575a4.444 4.444 0 0 0-2.94 2.94l-2.575-2.575a.997.997 0 0 0-.707-.293ZM5 43.148V41h2.147A3.857 3.857 0 0 1 11 44.852V47H8.852A3.857 3.857 0 0 1 5 43.148ZM51 58a1 1 0 0 1-1 1H14a1 1 0 0 1-1-1v-1h38Zm1-3H12a7.01 7.01 0 0 1-6.929-6H58.93A7.01 7.01 0 0 1 52 55Zm1-8v-2.148a3.9 3.9 0 0 1 1.255-2.825C55.462 40.792 57.432 40.997 59 41v2.147A3.857 3.857 0 0 1 55.148 47Z" fill="#f7c6c6" class="fill-000000 fill-f6eaea"></path></svg>