<svg viewBox="0 0 91 91" xml:space="preserve" xmlns="http://www.w3.org/2000/svg"><path d="M25.474 28.946s7.602-9.437 22.947-9.437c5.437 0 3.442 10.541 3.442 10.541" fill="#E4E4E6" class="fill-e4e4e6"></path><path d="m54.051 30.464-4.376-.828c.43-2.296.566-6.3-.506-7.59-.163-.196-.338-.311-.748-.311-14.116 0-21.143 8.521-21.213 8.607l-3.468-2.794c.338-.418 8.457-10.266 24.681-10.266 1.691 0 3.136.665 4.179 1.924 2.776 3.35 1.697 9.966 1.451 11.258z" fill="#434B56" class="fill-434b56"></path><path d="M25.474 64.827s7.602 9.435 22.947 9.435c5.437 0 3.442-10.54 3.442-10.54" fill="#E4E4E6" class="fill-e4e4e6"></path><path d="M48.421 76.489c-16.223 0-24.343-9.846-24.681-10.266l3.463-2.799c.288.35 7.209 8.61 21.218 8.61.41 0 .585-.112.748-.311 1.072-1.29.936-5.294.506-7.593l4.376-.825c.246 1.293 1.325 7.907-1.451 11.258-1.043 1.261-2.488 1.926-4.179 1.926z" fill="#434B56" class="fill-434b56"></path><path d="M37.135 27.122c-14.369 0-26.996 7.911-34.324 19.864 7.328 11.954 19.955 19.866 34.324 19.866 14.372 0 26.998-7.912 34.328-19.866-7.33-11.953-19.956-19.864-34.328-19.864z" fill="#f7c6c6" class="fill-b1e1f8"></path><path d="M37.135 69.078c-14.649 0-28.19-7.823-36.223-20.928l-.713-1.164.713-1.164c8.033-13.103 21.574-20.926 36.223-20.926 14.647 0 28.19 7.823 36.226 20.926l.713 1.164-.713 1.164c-8.036 13.105-21.579 20.928-36.226 20.928zM5.448 46.986c7.289 11.07 19.037 17.638 31.688 17.638 12.65 0 24.399-6.565 31.689-17.638-7.29-11.071-19.039-17.637-31.689-17.637-12.652 0-24.4 6.567-31.688 17.637z" fill="#434B56" class="fill-434b56"></path><path d="M44.109 56.058c-1.145.002-2.406-.23-3.758-.779a2.225 2.225 0 1 1 1.674-4.125c2.058.836 3.521.38 4.203-.325.336-.347.485-.757.369-1.021-.129-.287-.764-.771-2.271-.893a6.572 6.572 0 0 1-1.547-.05 2.227 2.227 0 0 1 .286-4.422c.413-.014.802-.012 1.172.006.688-.096 1.605-.371 2.172-.847.325-.274.327-.443.327-.516-.365-.563-2.87-.922-5.261-.614a2.225 2.225 0 0 1-2.495-1.919 2.226 2.226 0 0 1 1.914-2.497c1.008-.132 6.178-.685 8.775 1.619 1.012.897 1.537 2.095 1.521 3.464-.015 1.302-.521 2.487-1.471 3.457a5.08 5.08 0 0 1 .946 1.405c.858 1.935.372 4.261-1.241 5.926-1.133 1.172-2.98 2.131-5.315 2.131z" fill="#434B56" class="fill-434b56"></path><path d="M88.628 62.822c-7.016-3.469-12.966-8.979-17.165-15.838 4.199-6.851 10.149-12.364 17.165-15.832 0 0-7.863 16.406 0 31.67z" fill="#f7c6c6" class="fill-b1e1f8"></path><path d="M88.626 65.048c-.334 0-.672-.074-.985-.229-7.381-3.649-13.631-9.415-18.078-16.67a2.226 2.226 0 0 1 .002-2.328c4.447-7.253 10.697-13.017 18.076-16.664a2.226 2.226 0 0 1 2.994 2.959c-.072.151-7.271 15.627-.028 29.687a2.227 2.227 0 0 1-1.981 3.245zM74.1 46.984c2.743 4.169 6.162 7.744 10.086 10.57-2.311-8.277-1.111-16.181.299-21.35-4.047 2.859-7.571 6.508-10.385 10.78zM24.622 66.545l-3.252-3.04c8.519-9.11 8.519-23.929 0-33.039l3.252-3.041c10.088 10.785 10.088 28.335 0 39.12zM15.363 45.398a2.22 2.22 0 0 1 2.228-2.228c1.227 0 2.218.992 2.218 2.228a2.217 2.217 0 0 1-2.218 2.219 2.218 2.218 0 0 1-2.228-2.219z" fill="#434B56" class="fill-434b56"></path></svg>