<svg viewBox="0 0 64 64" xml:space="preserve" xmlns="http://www.w3.org/2000/svg"><path d="M62 30h-5.601l3.349-6.029a2 2 0 0 0-3.496-1.943L51.823 30h-5.582l1.921-1.373a2 2 0 0 0-2.324-3.255L39.359 30h-2.781a4.902 4.902 0 0 0-.561-.951l1.394-2.406 7.247-3.297a2 2 0 0 0-1.656-3.641l-2.15.978 2.791-4.834 9.118.151a2 2 0 0 0 .066-4l-6.896-.114 2.8-4.851a2 2 0 0 0-3.463-2l-2.801 4.851-3.546-5.915a2 2 0 0 0-3.431 2.057l4.689 7.82-2.791 4.834-.229-2.35a2 2 0 0 0-3.982.387l.769 7.924-1.396 2.412c-.182-.02-.361-.055-.55-.055s-.368.035-.551.056l-1.396-2.412.768-7.924a2 2 0 0 0-3.981-.387l-.228 2.35-2.791-4.834 4.689-7.82a2 2 0 0 0-3.431-2.057l-3.546 5.915-2.8-4.851a2 2 0 1 0-3.465 2l2.8 4.851-6.895.113a2.001 2.001 0 0 0 .067 4l9.118-.151 2.791 4.834L21 19.705a2.001 2.001 0 0 0-2.649.993 1.999 1.999 0 0 0 .993 2.648l7.247 3.297 1.393 2.406a4.95 4.95 0 0 0-.56.951h-2.781l-6.479-4.627a2 2 0 1 0-2.325 3.255L17.759 30h-5.582l-4.428-7.971a2 2 0 0 0-3.497 1.943L7.601 30H2a2 2 0 0 0 0 4h5.601l-3.349 6.029a2.001 2.001 0 0 0 3.497 1.943L12.177 34h5.582l-1.921 1.373a1.997 1.997 0 0 0-.465 2.79 2 2 0 0 0 2.79.465L24.641 34h2.781c.149.341.342.654.56.951l-1.393 2.405-7.247 3.297a2 2 0 0 0 1.656 3.641l2.149-.979-2.791 4.834L11.239 48a2.001 2.001 0 0 0-.066 4l6.896.113-2.8 4.852a2.001 2.001 0 0 0 3.464 2l2.8-4.852 3.546 5.916a2.001 2.001 0 0 0 3.431-2.058l-4.689-7.82 2.791-4.834.228 2.351a2 2 0 1 0 3.981-.386l-.768-7.925 1.396-2.412c.183.02.362.055.551.055s.368-.035.551-.056l1.396 2.412-.769 7.925a2.001 2.001 0 0 0 3.982.386l.229-2.351 2.791 4.834-4.689 7.82a2 2 0 1 0 3.431 2.058l3.546-5.916 2.801 4.852a2 2 0 0 0 3.463-2l-2.8-4.852L52.827 52a2 2 0 0 0-.066-4l-9.118.15-2.791-4.834 2.15.979a2 2 0 0 0 1.656-3.641l-7.247-3.297-1.394-2.405c.219-.297.411-.61.561-.951h2.781l6.479 4.628a2 2 0 1 0 2.324-3.255L46.241 34h5.582l4.429 7.972a2 2 0 1 0 3.496-1.943L56.399 34H62a2 2 0 0 0 0-4z" fill="#fad5d5" class="fill-000000"></path></svg>