<svg viewBox="0 0 512 512" xml:space="preserve" xmlns="http://www.w3.org/2000/svg" enable-background="new 0 0 512 512"><path d="M205 377.7C79.4 355 15 228.8 23 143.6c-14.8 31.4-6.7 78.5 1.3 113.1 46 276.3 467.6 241.4 470.1-1.9C476.3 336 366.1 409.5 205 377.7z" fill="#2893ea" class="fill-b5e3f7"></path><path d="M329.4 131c-34.1 10.5-71.3.3-99.2-22-74.2-60.8-125-70.8-164.1-53.6C-7.3 87.6 6.5 202.7 14.8 259.2c46.4 315.8 526.9 255 492.9-59.1 0 0-13.2-120.1-178.3-69.1zm-117.2.7c34.9 28.1 80.8 38.5 124.4 28.1 122.8-30.8 153.3 27.8 143.3 92-11.9 52-61.5 88.2-110.2 104.8 14.8-11.7 63.1-89 27.6-94.3-8.1-.9-15.5 4.9-16.4 13.1 0 0-6.5 51.3-68.3 89.7-1.7 1.1-3.1 2.5-4.3 4.1-27.4 2.3-54.9 1.4-82-2.9 39-22 68.9-57.2 84.4-99.2 2.4-7.8-2-16.1-9.9-18.5-7.8-2.4-16.1 2-18.5 9.9-17.2 45.3-57.2 79.2-101.4 97.1-63.9-22-99.2-62.9-124.2-117.2C31 185.1 23.1 111 77.2 84.2c32-15.9 83.7 7.6 135 47.5zm208.2 250.1c-103.2 94-320.1 75.3-371.9-94.9 80.2 132.4 287.1 146.5 403.8 57.9-9.2 13.5-20 25.9-32.2 36.8l.3.2z" fill="#5ea3c1" class="fill-5ea3c1"></path><path d="M147.4 266.3c35.2-.1 63.7-28.6 63.7-63.8-3-84.4-124.6-84.3-127.5 0 0 35.2 28.6 63.7 63.8 63.8zm0-97.9c42.5 3.2 42.5 65 0 68.2-42.6-3.2-42.5-65 0-68.2z" fill="#5ea3c1" class="fill-5ea3c1"></path></svg>