<svg viewBox="0 0 12.7 12.7" xmlns="http://www.w3.org/2000/svg"><g stroke-width="3.77952766"><g stroke-width="3.77952766"><path d="M146.316 8.568a4.717 4.717 0 0 0-4.194 2.354s-1.196 2.022-4.054 3.993c-2.857 1.972-6.935 3.695-13.395 2.41a4.718 4.718 0 1 0-1.842 9.254c8.972 1.785 16.103-.797 20.597-3.897 4.493-3.101 6.79-6.92 6.79-6.92a4.717 4.717 0 0 0-3.902-7.194z" style="line-height:normal;font-variant-ligatures:normal;font-variant-position:normal;font-variant-caps:normal;font-variant-numeric:normal;font-variant-alternates:normal;font-feature-settings:normal;text-indent:0;text-align:start;text-decoration-line:none;text-decoration-style:solid;text-decoration-color:#000;text-transform:none;text-orientation:mixed;white-space:normal;shape-padding:0;isolation:auto;mix-blend-mode:normal;solid-color:#000;solid-opacity:1" transform="matrix(.26458 0 0 .26458 -29.363 1.623)" color="#000000" font-style="normal" font-variant="normal" font-weight="400" font-stretch="normal" font-size="medium" font-family="sans-serif" text-decoration="none" letter-spacing="normal" word-spacing="normal" writing-mode="lr-tb" direction="ltr" dominant-baseline="auto" baseline-shift="baseline" text-anchor="start" clip-rule="nonzero" display="inline" overflow="visible" visibility="visible" opacity="1" color-interpolation="sRGB" color-interpolation-filters="linearRGB" vector-effect="none" fill="#f7c6c6" fill-opacity="1" fill-rule="evenodd" stroke="none" stroke-width="30.23622131" stroke-linecap="round" stroke-linejoin="round" stroke-miterlimit="4" stroke-dasharray="none" stroke-dashoffset="0" stroke-opacity="1" color-rendering="auto" image-rendering="auto" shape-rendering="auto" text-rendering="auto" enable-background="accumulate" class="fill-e2876a"></path><path d="M141.145 12.203a16.31 16.31 0 0 1-2.229 2.087 4.765 3.364 88.787 0 0 1.376 3.693 4.765 3.364 88.787 0 0 1.214-3.781 4.765 3.364 88.787 0 0-.361-1.999zm-4.844 3.789c-.788.416-1.658.789-2.619 1.085a3.364 4.765 7.992 0 0 .77 3.848 3.364 4.765 7.992 0 0 1.802-3.537 3.364 4.765 7.992 0 0 .047-1.396zm-5.48 1.671c-.84.092-1.737.127-2.699.087a3.364 4.765 18.634 0 0 .053 3.898 3.364 4.765 18.634 0 0 2.426-3.144 3.364 4.765 18.634 0 0 .22-.84z" style="line-height:normal;font-variant-ligatures:normal;font-variant-position:normal;font-variant-caps:normal;font-variant-numeric:normal;font-variant-alternates:normal;font-feature-settings:normal;text-indent:0;text-align:start;text-decoration-line:none;text-decoration-style:solid;text-decoration-color:#000;text-transform:none;text-orientation:mixed;white-space:normal;shape-padding:0;isolation:auto;mix-blend-mode:normal;solid-color:#000;solid-opacity:1" transform="matrix(.26458 0 0 .26458 -29.363 1.623)" color="#000000" font-style="normal" font-variant="normal" font-weight="400" font-stretch="normal" font-size="medium" font-family="sans-serif" text-decoration="none" letter-spacing="normal" word-spacing="normal" writing-mode="lr-tb" direction="ltr" dominant-baseline="auto" baseline-shift="baseline" text-anchor="start" clip-rule="nonzero" display="inline" overflow="visible" visibility="visible" opacity="1" color-interpolation="sRGB" color-interpolation-filters="linearRGB" vector-effect="none" fill="#e68181" fill-opacity="1" fill-rule="evenodd" stroke="none" stroke-width="30.23622131" stroke-linecap="round" stroke-linejoin="round" stroke-miterlimit="4" stroke-dasharray="none" stroke-dashoffset="0" stroke-opacity="1" color-rendering="auto" image-rendering="auto" shape-rendering="auto" text-rendering="auto" enable-background="accumulate" class="fill-ffc8b6"></path><path d="M136.12 23.648a.5.5 0 0 0-.18.034c-7.165 2.692-13.547.42-13.547.42a.5.5 0 1 0-.338.941s6.714 2.403 14.236-.424a.5.5 0 0 0-.172-.97z" style="line-height:normal;font-variant-ligatures:normal;font-variant-position:normal;font-variant-caps:normal;font-variant-numeric:normal;font-variant-alternates:normal;font-feature-settings:normal;text-indent:0;text-align:start;text-decoration-line:none;text-decoration-style:solid;text-decoration-color:#000;text-transform:none;text-orientation:mixed;white-space:normal;shape-padding:0;isolation:auto;mix-blend-mode:normal;solid-color:#000;solid-opacity:1" transform="matrix(.26458 0 0 .26458 -29.363 1.623)" color="#000000" font-style="normal" font-variant="normal" font-weight="400" font-stretch="normal" font-size="medium" font-family="sans-serif" text-decoration="none" letter-spacing="normal" word-spacing="normal" writing-mode="lr-tb" direction="ltr" dominant-baseline="auto" baseline-shift="baseline" text-anchor="start" clip-rule="nonzero" display="inline" overflow="visible" visibility="visible" opacity="1" color-interpolation="sRGB" color-interpolation-filters="linearRGB" vector-effect="none" fill="#f59d70" fill-opacity="1" fill-rule="evenodd" stroke="none" stroke-width="3.77952766" stroke-linecap="round" stroke-linejoin="miter" stroke-miterlimit="4" stroke-dasharray="none" stroke-dashoffset="0" stroke-opacity="1" color-rendering="auto" image-rendering="auto" shape-rendering="auto" text-rendering="auto" enable-background="accumulate" class="fill-c76537"></path></g><path d="M150.608 16.293a5.217 5.217 0 0 0-4.636 2.603c-.003.006-1.131 1.917-3.907 3.832-2.786 1.923-6.676 3.591-13.013 2.33-1.665-.332-3.104.049-4.158.846-1.055.797-1.727 1.986-1.979 3.252-.252 1.266-.086 2.621.582 3.762.668 1.14 1.852 2.044 3.518 2.377 9.113 1.813 16.388-.81 20.978-3.977 4.586-3.165 6.934-7.072 6.934-7.072 2.099-3.408-.314-7.858-4.317-7.953a.5.5 0 0 0-.002 0zm-.023 1c3.281.077 5.213 3.639 3.488 6.431a.5.5 0 0 0-.002.006s-2.245 3.729-6.646 6.766c-4.397 3.034-11.382 5.575-20.215 3.818-1.42-.283-2.32-1-2.85-1.902-.529-.903-.673-2.013-.464-3.06.208-1.049.767-2.019 1.601-2.65.834-.63 1.94-.945 3.36-.661 6.583 1.31 10.849-.468 13.777-2.489 2.935-2.025 4.199-4.15 4.199-4.15a.5.5 0 0 0 .004-.006 4.212 4.212 0 0 1 3.748-2.103z" style="line-height:normal;font-variant-ligatures:normal;font-variant-position:normal;font-variant-caps:normal;font-variant-numeric:normal;font-variant-alternates:normal;font-feature-settings:normal;text-indent:0;text-align:start;text-decoration-line:none;text-decoration-style:solid;text-decoration-color:#000;text-transform:none;text-orientation:mixed;white-space:normal;shape-padding:0;isolation:auto;mix-blend-mode:normal;solid-color:#000;solid-opacity:1" transform="matrix(.26458 0 0 .26458 -30.494 -.553)" color="#000000" font-style="normal" font-variant="normal" font-weight="400" font-stretch="normal" font-size="medium" font-family="sans-serif" text-decoration="none" letter-spacing="normal" word-spacing="normal" writing-mode="lr-tb" direction="ltr" dominant-baseline="auto" baseline-shift="baseline" text-anchor="start" clip-rule="nonzero" display="inline" overflow="visible" visibility="visible" opacity="1" color-interpolation="sRGB" color-interpolation-filters="linearRGB" vector-effect="none" fill="#fad2d2" fill-opacity="1" fill-rule="evenodd" stroke="none" stroke-width="3.77952766" stroke-linecap="round" stroke-linejoin="round" stroke-miterlimit="4" stroke-dasharray="none" stroke-dashoffset="0" stroke-opacity="1" color-rendering="auto" image-rendering="auto" shape-rendering="auto" text-rendering="auto" enable-background="accumulate" class="fill-666666"></path></g></svg>