<?xml version="1.0" ?><svg viewBox="0 0 32 32" xmlns="http://www.w3.org/2000/svg"><defs><style>.cls-1{fill:#2893ea;}</style></defs><title/><g id="Snowflake"><path class="cls-1" d="M27.41,21.52,24.2,19.94l3.07-1a1,1,0,0,0-.65-1.9l-5,1.69L19,17.38V14.62l2.66-1.31,5,1.69a1,1,0,0,0,.65-1.9l-3.07-1,3.21-1.58a1,1,0,1,0-.88-1.8l-3.22,1.59,1-3.07a1,1,0,0,0-1.89-.65l-1.69,5L18,12.88l-1-.5v-3l3.71-3.7a1,1,0,1,0-1.42-1.42L17,6.59V3a1,1,0,0,0-2,0V6.59l-2.29-2.3a1,1,0,0,0-1.42,1.42L15,9.41v3l-1,.5-2.77-1.36-1.69-5a1,1,0,1,0-1.89.65l1,3.07L5.47,8.68a1,1,0,1,0-.88,1.8L7.8,12.06l-3.07,1A1,1,0,0,0,5.38,15l5-1.69L13,14.62v2.76l-2.66,1.31L5.38,17a1,1,0,0,0-.65,1.9l3.07,1L4.59,21.52a1,1,0,0,0,.88,1.8l3.22-1.59-1,3.07a1,1,0,0,0,1.89.65l1.69-5L14,19.12l1,.5v3l-3.71,3.7a1,1,0,0,0,1.42,1.42L15,25.41V29a1,1,0,0,0,2,0V25.41l2.29,2.3a1,1,0,0,0,1.42-1.42L17,22.59v-3l1-.5,2.77,1.36,1.69,5a1,1,0,0,0,1.89-.65l-1-3.07,3.22,1.59a1,1,0,1,0,.88-1.8Z"/></g></svg>